# xmcd
#
# Track frame offsets: 
#        150
#        9365
#        20260
#        34270
#        43571
#        55080
#        64567
#        76874
#        87150
#        98935
#        112204
#        120643
#        132608
#        143133
#        162251
#        169398
#        181351
#        190803
#        198574
#        211898
#        224569
#        235185
#        246183
#        256758
#        268840
#
# Disc length: 3717 seconds
#
# Revision: 0
# Processed by: cddbd v1.5.2PL0 Copyright (c) Steve Scherf et al.
# Submitted via: ExactAudioCopyFreeDBPlugin 1.0
#
DISCID=670e8319
DTITLE=Pierre Perret - 20 fables de La Fontaine version Pierrot
DYEAR=2011
DGENRE=Variété française
TTITLE0=La cigale et la fourmi
TTITLE1=Le loup et l'agneau
TTITLE2=Le paon
TTITLE3=Le corbeau et le renard
TTITLE4=Le chêne et le roseau
TTITLE5=Le conseil tenu par les rats
TTITLE6=Le renard et les raisins
TTITLE7=Le laboureur et ses enfants
TTITLE8=Le lièvre et la tortue
TTITLE9=Le savetier et le financier
TTITLE10=Le pot de terre et le pot de fer
TTITLE11=Perrette et le pot au lait
TTITLE12=La colombe et la fourmi
TTITLE13=Le meunier son fils et l'âne
TTITLE14=Le héron
TTITLE15=Le renard et la cigogne
TTITLE16=La grenouille qui se veut aussi grosse que le bœuf
TTITLE17=Le lion et le rat
TTITLE18=Le rat des villes et le rat des champs
TTITLE19=Le loup et la cigogne
TTITLE20=L'orchestre fou
TTITLE21=Dodo Rémi
TTITLE22=Vis et versa
TTITLE23=Une chanson de toutes les couleurs
TTITLE24=Savez-vous compter
EXTD=Intégrale 1957 - 2011
EXTT0=
EXTT1=
EXTT2=
EXTT3=
EXTT4=
EXTT5=
EXTT6=
EXTT7=
EXTT8=
EXTT9=
EXTT10=
EXTT11=
EXTT12=
EXTT13=
EXTT14=
EXTT15=
EXTT16=
EXTT17=
EXTT18=
EXTT19=
EXTT20=
EXTT21=
EXTT22=
EXTT23=
EXTT24=
PLAYORDER=
